<?xml version="1.0" encoding="utf-8"?>
<!-- Generator: Adobe Illustrator 24.1.2, SVG Export Plug-In . SVG Version: 6.00 Build 0)  -->
<svg version="1.1" id="Layer_1" xmlns="http://www.w3.org/2000/svg" xmlns:xlink="http://www.w3.org/1999/xlink" x="0px" y="0px"
	 viewBox="0 0 2469.6 457.2" style="enable-background:new 0 0 2469.6 457.2;" xml:space="preserve">
<style type="text/css">
	.st0{fill-rule:evenodd;clip-rule:evenodd;fill:#CC0000;}
	.st1{stroke:#FFFFFF;stroke-width:10;stroke-miterlimit:10;}
	.st2{fill:#61DAFB;}
	.st3{fill:none;stroke:#61DAFB;stroke-width:22.2864;}
</style>
<g>
	<g transform="translate(8 8)">
		<path class="st0" d="M2303.2,379v55.9h100.5c20.9,0,56.7-15.1,57.9-57.5v-21.6c0-36.2-29.9-57.5-57.9-57.5h-50.8v-24.8h102.5
			v-55.9H2358c-24.8,0-57.9,20.5-57.9,58.7v19.6c0,38.2,32.8,57.8,57.9,57.8c69.7,0.3-16.7,0,47.7,0v25.5 M1758.2,365.4
			c0,0,53.8-4.6,53.8-74.5s-65.1-76.4-65.1-76.4h-117.4v220.4h59v-53.2l51,53.2h87.2L1758.2,365.4z M1735.1,320.1h-46.6v-49.7h46.9
			c0,0,13.1,4.9,13.1,24.7S1735.1,320.1,1735.1,320.1z M1962.6,217.6h-60.9c-43.4,0-58.1,39.2-58.1,57.9V438h59v-40.4h55.9V438h62.2
			V275.5C2020.7,228.2,1977.6,217.6,1962.6,217.6z M1958.9,335.6h-56.2v-53.2c0,0,0-12,18.6-12h20.5c16.5,0,16.8,12,16.8,12v53.2
			H1958.9z"/>
		<rect x="2045.5" y="217.6" class="st0" width="62.1" height="220.4"/>
		<polygon class="st0" points="2197.7,379 2197.7,217.6 2135.6,217.6 2135.6,378.8 2135.6,434.9 2197.7,434.9 2281.5,434.9 
			2281.5,379 		"/>
		<path class="st0" d="M1255.4,438h245.3c0,0-46.9-213.9,108.4-300.6c33.8-16.5,141.6-77.9,317.9,52.5c5.6-4.7,10.9-8.4,10.9-8.4
			S1776.4,20.4,1596.7,38.4c-90.4,8.1-201.5,90.4-266.7,199C1264.8,346,1255.4,438,1255.4,438z"/>
		<path class="st0" d="M1255.4,438h245.3c0,0-46.9-213.9,108.4-300.6c33.8-16.5,141.6-77.9,317.9,52.5c5.6-4.7,10.9-8.4,10.9-8.4
			S1776.4,20.4,1596.7,38.4c-90.4,8.1-201.5,90.4-266.7,199C1264.8,346,1255.4,438,1255.4,438z"/>
		<path class="st0" d="M1255.4,438h245.3c0,0-46.9-213.9,108.4-300.6c33.8-16.5,141.6-77.9,317.9,52.5c5.6-4.7,10.9-8.4,10.9-8.4
			S1776.4,20.4,1596.7,38.4c-90.7,8.1-201.8,90.4-267,199S1255.4,438,1255.4,438z M1766.5,54.5l1.2-20.8
			c-2.8-1.6-10.6-5.3-30.1-10.9l-1.2,20.5C1746.6,46.8,1756.6,50.5,1766.5,54.5z"/>
		<path class="st0" d="M1737,120.4l-1.2,19.6c10.2,0.3,20.5,1.6,30.7,3.7l1.2-19.3C1757.2,122.2,1746.9,121,1737,120.4z M1622.1,22
			h3.1L1619,3.1c-9.6,0-19.6,0.6-29.8,1.9l5.9,18.3C1604.1,22.3,1613.1,22,1622.1,22z M1637,137.8l7.1,21.4c9-4.3,18-8.1,27-10.9
			l-6.8-20.5C1653.8,130.9,1644.8,134.3,1637,137.8z M1496.1,56.1l-14-21.4c-7.8,4-15.8,8.4-24.2,13.4l14.3,21.7
			C1480.2,64.8,1488,60.1,1496.1,56.1z M1559.7,195.8l14.9,22.4c5.3-7.8,11.5-14.9,18.3-22l-14-21.1
			C1571.8,181.5,1565.3,188.7,1559.7,195.8z M1514.7,295.8l25.1,19.9c1.2-12.1,3.4-24.2,6.5-36.3l-22.4-17.7
			C1520,273.1,1517.2,284.6,1514.7,295.8z M1378.7,148.3l-22-19.3c-8.1,7.8-15.8,15.5-23,23.3l23.9,20.5
			C1364.1,164.5,1371.2,156.1,1378.7,148.3z M1284.9,287.1l-35.7-13c-5.9,13.3-12.4,28.8-15.5,37.2l35.7,13
			C1273.4,313.8,1280,298.6,1284.9,287.1z M1510,374.7c0.6,16.5,2.2,29.8,3.7,39.1l37.3,13.4c-2.8-12.1-5.6-25.8-7.5-40.4
			L1510,374.7z"/>
	</g>
</g>
<g>
	<path class="st1" d="M1041.7,213.7v29.7c0,2.6-1.3,4-4,4H890.4v155.3c0,2.6-1.3,4-4,4h-29.7c-2.6,0-4-1.3-4-4V247.3H705.4
		c-2.6,0-4-1.3-4-4v-29.7c0-2.6,1.3-4,4-4h147.3V54.5c0-2.6,1.3-4,4-4h29.7c2.6,0,4,1.3,4,4v155.3h147.3
		C1040.3,209.7,1041.7,211.1,1041.7,213.7z"/>
</g>
<g>
	<circle class="st2" cx="256.3" cy="228.6" r="45.7"/>
	<g>
		<ellipse class="st3" cx="256.3" cy="228.6" rx="245.2" ry="93.6"/>
		<ellipse transform="matrix(0.866 -0.5 0.5 0.866 -79.9598 158.7725)" class="st3" cx="256.3" cy="228.6" rx="93.6" ry="245.2"/>
		<ellipse transform="matrix(0.5 -0.866 0.866 0.5 -69.8207 336.2534)" class="st3" cx="256.3" cy="228.6" rx="245.2" ry="93.6"/>
	</g>
</g>
</svg>
